<?xml version="1.0" encoding="UTF-8"?>
<svg id="Layer_1" xmlns="http://www.w3.org/2000/svg" version="1.1" viewBox="0 0 56 49">
  <!-- Generator: Adobe Illustrator 29.6.1, SVG Export Plug-In . SVG Version: 2.1.1 Build 9)  -->
  <defs>
    <style>
      .st0 {
        fill: #e89135;
      }
    </style>
  </defs>
  <path class="st0" d="M28.53,35.04c6.11,0,11.07-4.69,11.29-10.54-.21-5.86-5.18-10.54-11.29-10.54s-11.08,4.69-11.28,10.54c.21,5.86,5.17,10.54,11.28,10.54Z"/>
  <path class="st0" d="M28.53,8.95c-8.59,0-15.55,6.96-15.55,15.55s6.96,15.55,15.55,15.55,15.55-6.96,15.55-15.55-6.96-15.55-15.55-15.55ZM28.53,35.81c-6.24,0-11.31-4.89-11.31-10.92,0-.13.02-.25.02-.38,0-.13-.02-.25-.02-.38,0-6.03,5.06-10.92,11.31-10.92s11.31,4.89,11.31,10.92c0,.13-.02.25-.02.38,0,.13.02.25.02.38,0,6.03-5.06,10.92-11.31,10.92Z"/>
  <path class="st0" d="M7.85,7.13c.17-.66.51,0,.51,0,0,0,.12,6.88.88,6.96.76.07.18-7.08,1.08-7.22.84-.13.36,7.33,1.12,7.26.76-.08.89-6.96.89-6.96,0,0,.34-.66.51,0,2.07,8.13.39,11.46.39,11.46,0,0-.28.7-.95.7-.06,0-.02,19.32-.02,21.91,0,1.26-3.89,1.22-3.88-.03,0-2.6.08-21.91.02-21.91-.67,0-.96-.7-.96-.7,0,0-1.67-3.32.41-11.46ZM44.69,6.84c.87,0,4.5,2.61,4.51,12.34,0,3.11-1.69,3.11-1.69,5.05,0,1.94.01,17.39.01,17.39,0,0-1.86,1.28-3.24-.06l-.03-34.44s0-.28.44-.28Z"/>
</svg>